<?xml version="1.0" encoding="utf-8"?>
<!-- Generator: Adobe Illustrator 18.1.0, SVG Export Plug-In . SVG Version: 6.00 Build 0)  -->
<svg version="1.1" id="Lager_1" xmlns="http://www.w3.org/2000/svg" xmlns:xlink="http://www.w3.org/1999/xlink" x="0px" y="0px"
	 viewBox="0 0 168 53" enable-background="new 0 0 168 53" xml:space="preserve">
<polygon fill="#0759A3" points="117.5,38 144.1,38 145.9,29 131.2,29 132.5,22.6 146.3,22.6 147.9,14.5 134.1,14.5 135.2,8.8 
	149.9,8.8 151.6,0.7 125,0.7 "/>
<polygon fill="#0759A3" points="77.8,0.8 70.3,38 80.4,38 87.8,0.8 "/>
<polygon fill="#0759A3" points="42.5,0.7 54.4,0.7 57.9,9.2 64.8,0.7 76.6,0.7 62,18.8 70.2,38 58.3,38 54.3,28.5 46.6,38 34.7,38 
	50.2,18.8 "/>
<path fill="#0759A3" d="M109.4,0.7h-1.6H90.7L83.3,38h16.5h1.2c0,0,14.8-1.1,18.4-19C122.9,1.2,109.4,0.7,109.4,0.7z M99.9,28.9H95
	l4.1-20.1h4.9c0,0,6.5,0.4,4.8,9C106.6,28.5,99.9,28.9,99.9,28.9z"/>
<path fill="#0759A3" d="M40.5,8.8l1.7-8.1H15.6l-2.9,14.1h-10L1,23h10L7.9,38h26.7l1.9-9.1H22.2l1.2-6h11l1.7-8.1h-11l1.2-6H40.5z
	 M27.5,18.8c0.5,0,0.8,0.2,0.8,0.5s-0.4,0.5-0.8,0.5c0,0-1.9-0.1-3.2,0s-5.5,0.4-6.5,4.1c-1.1,3.6-1.1,4.3-1.1,4.3
	C16.5,28.7,16.2,29,16,29c-0.3-0.1-0.3-0.5-0.3-0.9c0,0,0.4-3.6,0.5-4.2c0-0.7,0.8-4.1-4.7-4.1l-3-0.2c-0.5,0-0.8-0.2-0.8-0.5
	s0.4-0.5,0.9-0.5c0,0,1.8,0,3.1,0c1.3-0.1,5.5-0.4,6.5-4.1c0.7-3,0.8-3.4,0.8-3.5c0,0,0,0,0,0c0,0,0,0,0,0c0.1-0.5,0.4-0.8,0.7-0.7
	c0.2,0.1,0.4,0.5,0.3,0.9c0,0-0.3,2.5-0.3,3.3c0,0.7-0.8,4.1,4.7,4.1L27.5,18.8z"/>
<g>
	<path fill="#0759A3" d="M8.2,43.5h2.4c1.9,0,2.9,0.7,2.9,2.3c0,0.7-0.4,1.4-1.1,1.9c0.9,0.6,1.3,1.1,1.3,2.2c0,1.8-1.2,2.6-3,2.6
		H8.2C8.2,52.6,8.2,43.5,8.2,43.5z M9.9,47.1h0.6c0.7,0,1.3-0.5,1.3-1c0-0.7-0.4-1.1-1.2-1.1H9.9V47.1z M9.9,51.1h0.7
		c0.9,0,1.4-0.6,1.4-1.3c0-0.8-0.6-1.3-1.5-1.3H10L9.9,51.1L9.9,51.1z"/>
	<path fill="#0759A3" d="M24,52.5l2.2-9h2.2l2.2,9H29l-0.5-1.9h-2.3l-0.5,1.9H24z M26.4,49h1.7l-0.8-3.6l0,0L26.4,49z"/>
	<path fill="#0759A3" d="M46.4,43.5V45h-2v7.5h-1.8V45h-2v-1.5H46.4z"/>
	<path fill="#0759A3" d="M62.8,43.5V45h-2v7.5h-1.7V45h-2v-1.5H62.8z"/>
	<path fill="#0759A3" d="M73.8,52.5v-9h4.7V45h-3v2.1h2.2v1.5h-2.2v2.3h3.1v1.5L73.8,52.5L73.8,52.5z"/>
	<path fill="#0759A3" d="M93.6,52.5l-1.5-3.6h-0.8v3.6h-1.7v-9h2.5c2.1,0,3.1,1,3.1,2.7c0,1.1-0.4,2-1.4,2.3l1.7,4L93.6,52.5
		L93.6,52.5z M91.3,47.4h0.8c0.7,0,1.2-0.4,1.2-1.2c0-0.8-0.5-1.2-1.2-1.2h-0.8V47.4z"/>
	<path fill="#0759A3" d="M108,52.5v-9h1.7v9H108z"/>
	<path fill="#0759A3" d="M122.8,52.5v-9h4.7V45h-3v2.1h2.2v1.5h-2.2v2.3h3v1.5L122.8,52.5L122.8,52.5z"/>
	<g>
		<path fill="#0759A3" d="M142.7,46c-0.3-0.8-0.7-1.2-1.2-1.2s-0.9,0.4-0.9,0.9c0,1.3,3.7,1.4,3.7,4.2c0,1.5-1,2.5-2.8,2.5
			c-1.4,0-2.4-0.7-2.9-2.4l1.7-0.4c0.2,1,0.8,1.4,1.3,1.4c0.6,0,1-0.4,1-1c0-1.7-3.7-1.7-3.7-4.1c0-1.5,0.9-2.4,2.6-2.4
			c1.5,0,2.4,0.9,2.7,2.2L142.7,46z"/>
	</g>
</g>
</svg>
